<?xml version="1.0" encoding="utf-8"?>
<!-- Generator: Adobe Illustrator 16.0.0, SVG Export Plug-In . SVG Version: 6.00 Build 0)  -->
<!DOCTYPE svg PUBLIC "-//W3C//DTD SVG 1.1//EN" "http://www.w3.org/Graphics/SVG/1.1/DTD/svg11.dtd">
<svg version="1.1" id="Layer_1" xmlns="http://www.w3.org/2000/svg" xmlns:xlink="http://www.w3.org/1999/xlink" x="0px" y="0px"
	 width="596.977px" height="68.475px" viewBox="0 0 596.977 68.475" enable-background="new 0 0 596.977 68.475"
	 xml:space="preserve">
<g>
	<path fill="#FFFFFF" d="M32.035,32.688h-1.224c-0.216-6.192-1.512-6.48-13.033-6.48c-3.528,0-4.968,0.144-6.336,0.36l-0.144,4.968
		c-0.072,2.809-0.072,10.081,0.648,14.114c1.368,0.358,3.096,1.08,9.145,1.08c11.089,0,14.113-2.231,16.345-8.569h1.08
		c-0.864,5.401-1.44,7.489-2.952,10.657c-1.368-0.146-5.256-0.218-8.785-0.218s-6.769-0.143-6.841-0.143
		c-6.696,0-14.401,0.287-18.938,0.504l0.072-1.225c4.104-0.863,4.249-0.938,4.681-3.891c0.504-3.527,0.864-15.77,0.792-18.146
		L6.329,14.54C6.113,4.891,5.825,4.891,1.577,4.027l0.072-0.936h22.538c2.448,0,7.633-0.144,11.449-0.288
		c-0.36,4.968-0.864,7.92-1.728,9.145l-0.936-0.288c0-0.72,0.288-2.592,0.288-2.952c0-3.888-7.129-3.96-10.441-3.96
		c-4.824,0-7.993,0.36-10.801,0.72c-0.288,2.592-0.648,5.617-0.648,9.793c0,3.024,0,7.92,0.072,9.145
		c0.864,0.072,2.88,0.072,5.185,0.072c3.672,0,8.137-0.072,10.225-0.288c2.592-0.288,2.952-0.288,4.249-4.752h0.936v13.249
		L32.035,32.688L32.035,32.688z"/>
	<path fill="#FFFFFF" d="M43.408,29.591c-0.144-0.576-0.288-1.152-0.288-1.656c0-3.96,9.217-6.769,11.017-6.769
		c1.44,0,3.744,1.729,4.608,2.521c0.936,0.936,2.16,2.232,2.16,7.345c0,1.584-0.072,3.096-0.144,4.68l-0.144,2.664
		c-0.144,1.873-0.144,2.16-0.144,3.023c0,0.504,0,4.752,1.944,4.752c1.44,0,3.024-0.721,3.672-1.008v1.439l-5.185,2.088
		c-0.648,0.289-1.368,0.504-1.728,0.504c-1.152,0-2.376-1.871-2.88-3.601c-1.584,0.863-6.336,3.601-10.009,3.601
		c-4.32,0-4.32-3.814-4.32-4.967c0-3.457,0.792-4.537,2.448-5.4c4.176-2.088,9.721-2.809,11.809-3.098l0.144-4.32
		c0.144-3.457-0.288-4.393-1.368-5.544c-1.368-1.296-3.097-2.088-4.321-2.088c-1.152,0-3.312,0.72-3.312,2.376
		c0,0.432,0.144,0.936,0.36,1.512L43.408,29.591z M49.24,46.801c1.728,0,4.464-1.369,6.841-2.521
		c-0.144-1.654,0.144-5.4,0.216-6.625C49.888,37.223,46,39.67,46,42.406C46,44.209,47.008,46.801,49.24,46.801z"/>
	<path fill="#FFFFFF" d="M68.176,40.609c0,1.08,3.312,6.121,8.424,6.121c1.008,0,4.969-0.072,4.969-3.744
		c0-3.815-4.104-5.761-5.617-6.554l-2.664-1.223c-2.16-1.08-5.041-2.737-5.041-5.906c0-3.168,3.457-7.488,9.505-7.488
		c1.224,0,2.736,0.144,5.617,0.504l1.152,5.977h-1.224c-0.648-2.448-4.536-4.969-6.769-4.969c-2.52,0-4.176,1.656-4.176,4.104
		c0,2.016,1.152,2.952,4.032,4.32l2.16,1.008c2.376,1.152,7.057,3.384,7.057,8.353c0,1.369-0.504,3.675-2.016,4.608
		c-4.249,2.664-6.553,2.951-8.713,2.951c-2.808,0-5.185-0.791-7.345-1.438c0.144-0.722,0.288-1.297,0.288-2.017
		c0-1.008-0.504-3.528-0.864-4.682L68.176,40.609z"/>
	<path fill="#FFFFFF" d="M92.44,24.695c-1.08-0.144-1.656-0.216-3.744-0.216l0.072-0.864c4.32-2.664,5.977-4.536,8.857-8.353
		l-0.36,6.336c1.512,0.144,3.312,0.288,6.625,0.288c1.224,0,1.728,0,3.744-0.072l-0.072,2.16c-1.224,0.144-2.521,0.216-3.745,0.216
		c-0.792,0-4.392-0.216-5.112-0.216c-1.728,0-1.656,0.432-1.728,4.032L96.833,38.95c-0.072,2.881-0.072,7.271,4.536,7.271
		c1.944,0,4.681-1.08,6.769-2.016l0.144,0.721c-1.584,1.729-6.84,3.959-10.441,3.959c-2.448,0-5.544-1.295-5.544-6.982v-3.527
		L92.44,24.695z"/>
	<path fill="#FFFFFF" d="M159.114,46.584c-3.601,1.08-8.209,2.377-13.609,2.377c-11.665,0-24.122-8.139-24.122-23.546
		c0-16.417,13.897-23.186,25.49-23.186c4.537,0,8.137,1.224,9.433,1.728c0.648,0.216,1.872,0.648,3.168,0.648
		c0.216,0,1.08-0.216,1.296-0.216c0.288,0,0.432,0.288,0.432,0.288c0,0.072-0.36,1.872-0.504,2.016
		c-0.576,2.016-1.008,4.464-1.296,6.697c-0.936-0.144-1.08-0.576-1.08-1.512c0-1.944-0.288-2.592-0.576-3.024
		c-1.152-1.8-6.841-4.752-12.385-4.752c-10.009,0-18.001,7.705-18.001,21.242c0,17.353,13.969,22.034,19.37,22.034
		c7.921,0,10.585-4.178,12.961-8.426c0.432-0.792,0.576-1.007,0.936-1.007c0.288,0,0.648,0.144,0.648,0.647
		c0,0.576-0.504,2.306-0.648,2.81L159.114,46.584z"/>
	<path fill="#FFFFFF" d="M166.527,29.591c-0.144-0.576-0.288-1.152-0.288-1.656c0-3.96,9.217-6.769,11.017-6.769
		c1.44,0,3.744,1.729,4.608,2.521c0.936,0.936,2.16,2.232,2.16,7.345c0,1.584-0.072,3.096-0.144,4.68l-0.144,2.664
		c-0.144,1.873-0.144,2.16-0.144,3.023c0,0.504,0,4.752,1.944,4.752c1.44,0,3.024-0.721,3.672-1.008v1.439l-5.185,2.088
		c-0.648,0.289-1.368,0.504-1.728,0.504c-1.152,0-2.376-1.871-2.88-3.601c-1.584,0.863-6.336,3.601-10.009,3.601
		c-4.32,0-4.32-3.814-4.32-4.967c0-3.457,0.792-4.537,2.448-5.4c4.176-2.088,9.721-2.809,11.809-3.098l0.144-4.32
		c0.144-3.457-0.288-4.393-1.368-5.544c-1.368-1.296-3.097-2.088-4.321-2.088c-1.152,0-3.312,0.72-3.312,2.376
		c0,0.432,0.144,0.936,0.36,1.512L166.527,29.591z M172.36,46.801c1.728,0,4.464-1.369,6.841-2.521
		c-0.144-1.654,0.144-5.4,0.216-6.625c-6.409-0.432-10.297,2.016-10.297,4.751C169.119,44.209,170.128,46.801,172.36,46.801z"/>
	<path fill="#FFFFFF" d="M198.568,20.231c0.144,2.16,0.144,2.521,0.144,5.977l4.249-2.448c0.72-0.432,2.592-1.512,4.464-2.736
		c0.288,0.216,0.504,0.36,0.792,0.504c1.008,0.504,2.232,1.08,2.232,2.952c0,2.016-1.944,3.096-3.816,3.312
		c0-1.656-0.864-2.448-2.16-2.448c-1.656,0-3.744,1.368-4.68,2.16c-1.152,1.008-1.152,1.008-1.224,3.816
		c0,0.864-0.216,4.825-0.216,6.265c0,1.801,0.144,7.201,0.72,8.498c0.36,0.791,0.936,0.791,2.016,0.791h0.936l4.177-0.072
		l-0.072,1.515l-16.273,0.433l0.072-1.08c3.6-0.648,4.392-0.793,4.392-14.258c0-5.185-0.216-7.057-2.736-7.057
		c-0.504,0-1.656,0.144-2.232,0.288l0.144-1.152L198.568,20.231z"/>
	<path fill="#FFFFFF" d="M226,21.527c7.345,0,13.609,5.76,13.609,13.321c0,7.201-5.4,13.97-13.969,13.97
		c-5.616,0-14.329-3.457-14.329-13.538C211.311,26.927,218.007,21.527,226,21.527z M226,47.161c4.825,0,8.857-4.248,8.857-10.873
		c0-6.409-4.464-13.105-10.585-13.105c-4.824,0-8.353,4.249-8.353,10.082C215.919,39.743,220.095,47.161,226,47.161z"/>
	<path fill="#FFFFFF" d="M250.407,31.968c-0.072,3.384,0,11.88,0.504,13.464c0.504,1.515,4.608,1.945,5.328,2.019v1.224
		c-1.008,0-6.625-0.357-9.289-0.357c-0.936,0-4.537,0.07-6.553,0.286v-1.079c3.601-0.646,4.752-1.943,5.112-5.041
		c0.36-2.305,0.936-15.841,0.936-25.346c0-3.672,0-9.289-0.936-10.585c-0.432-0.648-1.224-0.864-2.376-0.864
		c-0.72,0-1.08,0.072-1.584,0.144v-1.08c3.6-1.512,6.913-2.952,9.433-4.752h1.08c-1.008,3.744-1.296,10.945-1.368,15.049
		L250.407,31.968z"/>
	<path fill="#FFFFFF" d="M258.11,47.521c1.44-0.144,3.024-0.358,3.384-1.08c0.432-0.863,0.648-9.358,0.648-11.087
		c0-6.697-0.216-7.705-0.792-8.353c-0.36-0.36-3.384-0.216-3.384-0.792c0-0.504,0.36-0.648,0.648-0.72
		c2.808-0.864,5.833-2.664,8.209-4.608c0.216,0,0.432,0.072,0.648,0.144c-0.72,3.168-1.152,11.81-1.152,15.481
		c0,1.513,0.072,7.705,0.576,9.434c0.288,0.863,0.72,0.938,2.376,1.079c1.8,0.071,1.944,0.146,2.448,0.218l0.432,1.008
		l-14.185,0.358L258.11,47.521z M266.03,3.813c1.44,0,2.665,1.224,2.665,2.736c0,1.44-1.152,2.736-2.665,2.736
		c-1.512,0-2.736-1.224-2.736-2.736C263.294,4.965,264.59,3.813,266.03,3.813z"/>
	<path fill="#FFFFFF" d="M282.086,36.864c-0.072,5.473-0.072,6.049,0.144,7.92c0.144,1.367,0.216,2.09,4.608,2.594l-0.072,1.08
		c-0.648-0.072-1.584-0.145-2.664-0.145c-1.08-0.072-2.232-0.072-3.24-0.072h-7.705l-0.072-1.152c3.96-0.721,4.104-1.512,4.32-2.951
		c0.432-2.735,0.504-8.498,0.504-10.441c0-7.633-0.36-7.633-4.608-8.065c0-0.216,0-0.432-0.072-0.648
		c2.448-0.648,6.625-2.664,6.697-2.736c0.072-0.072,1.296-0.72,1.584-0.72c0.792,0,0.792,1.872,0.792,4.392
		c4.608-2.592,7.993-4.032,11.161-4.032c7.272,0,7.272,5.544,7.272,10.801v8.354c0,2.016,0,4.969,0.432,5.398
		c0.434,0.434,3.17,0.863,3.602,1.08l0.072,1.08c-0.865-0.145-2.377-0.359-6.122-0.359c-2.952,0-5.688,0.217-7.056,0.359v-1.008
		c2.52-0.504,3.456-1.152,3.96-2.017c0.792-1.655,0.936-9.288,0.936-10.729c0-4.607,0-9.937-5.472-9.937
		c-0.288,0-3.888,0-8.785,2.52L282.086,36.864z"/>
	<path fill="#FFFFFF" d="M308.867,29.591c-0.145-0.576-0.287-1.152-0.287-1.656c0-3.96,9.217-6.769,11.016-6.769
		c1.441,0,3.746,1.729,4.609,2.521c0.936,0.936,2.16,2.232,2.16,7.345c0,1.584-0.072,3.096-0.146,4.68l-0.143,2.664
		c-0.146,1.873-0.146,2.16-0.146,3.023c0,0.504,0,4.752,1.943,4.752c1.439,0,3.023-0.721,3.672-1.008v1.439l-5.184,2.088
		c-0.648,0.289-1.367,0.504-1.729,0.504c-1.152,0-2.375-1.871-2.879-3.601c-1.586,0.863-6.338,3.601-10.01,3.601
		c-4.32,0-4.32-3.814-4.32-4.967c0-3.457,0.791-4.537,2.447-5.4c4.178-2.088,9.721-2.809,11.811-3.098l0.145-4.32
		c0.145-3.457-0.287-4.393-1.367-5.544c-1.369-1.296-3.097-2.088-4.32-2.088c-1.152,0-3.312,0.72-3.312,2.376
		c0,0.432,0.145,0.936,0.357,1.512L308.867,29.591z M314.701,46.801c1.727,0,4.463-1.369,6.84-2.521
		c-0.146-1.654,0.145-5.4,0.217-6.625c-6.41-0.432-10.297,2.016-10.297,4.751C311.461,44.209,312.469,46.801,314.701,46.801z"/>
	<path fill="#FFFFFF" d="M341.484,3.382c1.656,0.072,3.385,0.072,5.039,0.072c5.906,0,5.979,0,11.738-0.288l0.359,1.152
		c-4.607,0.576-5.475,1.368-6.049,2.52c-1.08,1.944-1.08,13.249-1.08,16.489c0,6.625,0.07,11.594,0.721,14.689
		c1.801,8.355,11.809,8.785,14.041,8.785c3.385,0,12.816-1.151,14.906-7.418c1.799-5.184,1.941-16.201,1.941-22.104
		c0-12.601-1.369-12.601-6.191-12.601l-0.145-1.224c1.08-0.146,2.809-0.216,3.527-0.216c2.592,0,7.561,0,10.152,0.072v1.44
		c-4.607,0.216-4.607,0.648-4.682,6.697c-0.287,17.857-0.936,26.138-3.168,30.386c-3.6,6.697-14.4,7.346-18.219,7.346
		c-8.711,0-17.857-3.602-17.857-14.689c0-2.448,0.146-13.033,0.146-15.337c0-5.328-0.146-10.369-0.938-12.961
		c-0.357-1.08-0.432-1.08-4.393-1.512L341.484,3.382z"/>
	<path fill="#FFFFFF" d="M398.939,36.864c-0.07,5.473-0.07,6.049,0.146,7.92c0.143,1.367,0.215,2.09,4.605,2.594l-0.07,1.08
		c-0.648-0.072-1.584-0.145-2.664-0.145c-1.08-0.072-2.232-0.072-3.24-0.072h-7.705l-0.072-1.152
		c3.961-0.721,4.105-1.512,4.322-2.951c0.432-2.735,0.504-8.498,0.504-10.441c0-7.633-0.359-7.633-4.607-8.065
		c0-0.216,0-0.432-0.072-0.648c2.449-0.648,6.625-2.664,6.697-2.736c0.07-0.072,1.295-0.72,1.584-0.72
		c0.791,0,0.791,1.872,0.791,4.392c4.607-2.592,7.992-4.032,11.16-4.032c7.271,0,7.271,5.544,7.271,10.801v8.354
		c0,2.016,0,4.969,0.434,5.398c0.434,0.434,3.168,0.863,3.602,1.08l0.071,1.08c-0.862-0.145-2.378-0.359-6.12-0.359
		c-2.951,0-5.688,0.217-7.059,0.359v-1.008c2.521-0.504,3.457-1.152,3.961-2.017c0.791-1.655,0.938-9.288,0.938-10.729
		c0-4.607,0-9.937-5.475-9.937c-0.285,0-3.889,0-8.783,2.52L398.939,36.864z"/>
	<path fill="#FFFFFF" d="M423.85,47.521c1.441-0.144,3.025-0.358,3.385-1.08c0.434-0.863,0.648-9.358,0.648-11.087
		c0-6.697-0.217-7.705-0.793-8.353c-0.359-0.36-3.383-0.216-3.383-0.792c0-0.504,0.357-0.648,0.646-0.72
		c2.811-0.864,5.834-2.664,8.209-4.608c0.219,0,0.434,0.072,0.648,0.144c-0.721,3.168-1.152,11.81-1.152,15.481
		c0,1.513,0.072,7.705,0.576,9.434c0.289,0.863,0.721,0.938,2.377,1.079c1.799,0.071,1.943,0.146,2.447,0.218l0.432,1.008
		l-14.184,0.358L423.85,47.521z M431.771,3.813c1.439,0,2.664,1.224,2.664,2.736c0,1.44-1.15,2.736-2.664,2.736
		s-2.734-1.224-2.734-2.736C429.035,4.965,430.33,3.813,431.771,3.813z"/>
	<path fill="#FFFFFF" d="M449.627,23.543c-3.672,0.36-3.816,0.72-3.816,1.44c0,2.665,4.033,14.042,5.475,17.137
		c3.168-5.184,6.406-13.394,6.406-15.985c0-2.376-2.088-2.521-3.742-2.592l0.145-1.152l2.449-0.072c0.068,0,0.719,0.072,1.438,0.072
		c0.791,0.072,1.584,0.144,1.871,0.144c1.297,0,2.666-0.144,4.033-0.432v1.08c-2.52,1.08-3.527,3.457-5.688,8.353l-6.34,13.969
		c-0.285,0.646-1.225,2.953-1.799,4.465h-1.08c-1.369-5.76-5.398-16.418-8.426-23.401c-0.791-1.8-1.08-1.944-3.527-3.168v-0.864
		c3.959,0.216,8.93,0.072,12.744-0.216L449.627,23.543z"/>
	<path fill="#FFFFFF" d="M469.283,33.984c0.215,4.104,0.504,6.121,2.52,8.785c2.736,3.528,5.545,3.528,6.553,3.528
		c1.873,0,4.248-0.504,7.348-2.735l0.646,0.862c-2.016,1.439-6.119,4.394-10.873,4.394c-7.199,0-10.655-6.554-10.655-12.528
		c0-11.233,9.146-14.689,11.019-14.689c2.592,0,6.984,0.937,9.359,6.409c0.217,0.504,0.434,0.864,1.586,0.864l0.068,1.296
		L469.283,33.984z M473.963,31.608c0.289-0.144,3.744-0.936,4.609-1.08c2.52-0.576,2.809-0.648,2.809-1.152
		c0-0.792-2.232-5.544-6.914-5.544c-4.031,0-4.896,6.048-5.111,8.785L473.963,31.608z"/>
	<path fill="#FFFFFF" d="M497.65,20.231c0.146,2.16,0.146,2.521,0.146,5.977l4.248-2.448c0.721-0.432,2.592-1.512,4.465-2.736
		c0.287,0.216,0.504,0.36,0.791,0.504c1.008,0.504,2.232,1.08,2.232,2.952c0,2.016-1.943,3.096-3.816,3.312
		c0-1.656-0.863-2.448-2.16-2.448c-1.654,0-3.744,1.368-4.68,2.16c-1.152,1.008-1.152,1.008-1.225,3.816
		c0,0.864-0.219,4.825-0.219,6.265c0,1.801,0.146,7.201,0.723,8.498c0.357,0.791,0.936,0.791,2.016,0.791h0.938l4.177-0.072
		l-0.072,1.515l-16.273,0.433l0.072-1.08c3.602-0.648,4.395-0.793,4.395-14.258c0-5.185-0.219-7.057-2.736-7.057
		c-0.504,0-1.656,0.144-2.232,0.288l0.146-1.152L497.65,20.231z"/>
	<path fill="#FFFFFF" d="M511.832,40.609c0,1.08,3.312,6.121,8.426,6.121c1.008,0,4.969-0.072,4.969-3.744
		c0-3.815-4.104-5.761-5.617-6.554l-2.662-1.223c-2.16-1.08-5.041-2.737-5.041-5.906c0-3.168,3.455-7.488,9.506-7.488
		c1.223,0,2.734,0.144,5.613,0.504l1.152,5.977h-1.223c-0.648-2.448-4.537-4.969-6.771-4.969c-2.52,0-4.176,1.656-4.176,4.104
		c0,2.016,1.152,2.952,4.031,4.32l2.158,1.008c2.379,1.152,7.059,3.384,7.059,8.353c0,1.369-0.504,3.675-2.018,4.608
		c-4.246,2.664-6.553,2.951-8.713,2.951c-2.809,0-5.184-0.791-7.344-1.438c0.145-0.722,0.287-1.297,0.287-2.017
		c0-1.008-0.504-3.528-0.863-4.682L511.832,40.609z"/>
	<path fill="#FFFFFF" d="M533.289,47.521c1.438-0.144,3.021-0.358,3.383-1.08c0.434-0.863,0.648-9.358,0.648-11.087
		c0-6.697-0.217-7.705-0.791-8.353c-0.361-0.36-3.387-0.216-3.387-0.792c0-0.504,0.359-0.648,0.648-0.72
		c2.809-0.864,5.832-2.664,8.209-4.608c0.215,0,0.432,0.072,0.646,0.144c-0.719,3.168-1.148,11.81-1.148,15.481
		c0,1.513,0.068,7.705,0.575,9.434c0.286,0.863,0.72,0.938,2.375,1.079c1.802,0.071,1.944,0.146,2.448,0.218l0.434,1.008
		l-14.188,0.358L533.289,47.521z M541.209,3.813c1.438,0,2.664,1.224,2.664,2.736c0,1.44-1.152,2.736-2.664,2.736
		s-2.736-1.224-2.736-2.736C538.473,4.965,539.77,3.813,541.209,3.813z"/>
	<path fill="#FFFFFF" d="M552.297,24.695c-1.08-0.144-1.656-0.216-3.746-0.216l0.072-0.864c4.32-2.664,5.977-4.536,8.855-8.353
		l-0.357,6.336c1.512,0.144,3.312,0.288,6.623,0.288c1.225,0,1.729,0,3.746-0.072l-0.072,2.16c-1.227,0.144-2.521,0.216-3.744,0.216
		c-0.793,0-4.393-0.216-5.113-0.216c-1.729,0-1.655,0.432-1.729,4.032l-0.146,10.944c-0.068,2.881-0.068,7.271,4.537,7.271
		c1.945,0,4.68-1.08,6.771-2.016l0.143,0.721c-1.584,1.729-6.84,3.959-10.438,3.959c-2.448,0-5.546-1.295-5.546-6.982v-3.527
		L552.297,24.695z"/>
	<path fill="#FFFFFF" d="M567.486,67.25c4.607-1.08,5.977-3.385,9.072-10.441l2.736-6.118c-2.09-7.634-4.465-16.707-6.986-22.754
		c-1.512-3.816-2.807-4.032-4.535-4.32v-1.08c0.863,0.072,1.871,0.144,2.736,0.216h2.088c2.447,0,4.824-0.144,7.201-0.432
		l-0.072,1.296c-1.439,0.288-2.734,0.504-2.734,2.088c0,2.088,2.016,10.441,5.109,18.648l2.307-4.177
		c3.814-6.912,5.688-11.81,5.688-13.682c0-1.8-1.801-2.664-4.896-3.024l0.504-1.152c1.729,0.216,3.24,0.288,4.535,0.36
		c1.225,0.072,2.158,0.072,2.734,0.072c1.873-0.072,2.664-0.072,3.457-0.216l-0.071,1.152c-2.017,0.36-3.312,2.52-4.536,4.968
		c-2.521,5.4-5.328,11.018-6.48,13.178c-7.633,14.904-8.496,18.721-10.367,26.643h-7.488L567.486,67.25L567.486,67.25z"/>
</g>
<g>
	<path fill="#FFFFFF" d="M593.971,42.232c1.691,0,3.006,1.313,3.006,2.952c0,1.675-1.312,2.972-3.022,2.972
		c-1.692,0-3.043-1.297-3.043-2.972c0-1.639,1.351-2.952,3.043-2.952H593.971z M593.934,42.825c-1.296,0-2.268,1.062-2.268,2.357
		c0,1.314,0.972,2.359,2.305,2.359c1.296,0.018,2.25-1.045,2.25-2.359c0-1.297-0.954-2.357-2.269-2.357H593.934z M593.484,46.715
		H592.8v-2.938c0.271-0.055,0.647-0.105,1.134-0.105c0.561,0,0.812,0.09,1.027,0.232c0.162,0.125,0.287,0.359,0.287,0.629
		c0,0.344-0.252,0.596-0.611,0.703v0.035c0.287,0.092,0.449,0.324,0.539,0.721c0.091,0.451,0.145,0.633,0.217,0.723h-0.738
		c-0.09-0.108-0.145-0.36-0.232-0.703c-0.054-0.323-0.234-0.469-0.611-0.469h-0.324L593.484,46.715L593.484,46.715z M593.502,45.059
		h0.324c0.378,0,0.684-0.127,0.684-0.434c0-0.271-0.197-0.449-0.63-0.449c-0.18,0-0.306,0.019-0.378,0.035V45.059z"/>
</g>
</svg>
